<svg width="36" height="31" viewBox="0 0 36 31" fill="none" xmlns="http://www.w3.org/2000/svg">
<path fill-rule="evenodd" clip-rule="evenodd" d="M27.1354 17.7385C26.6239 16.3204 27.3495 15.4857 28.6123 16.414L28.5602 17.4928C27.9364 17.9712 28.0117 17.9651 27.1354 17.7385H27.1354ZM27.1626 14.2367C23.7835 15.1696 25.0534 20.6661 28.5048 19.6669C31.7033 18.7409 30.5173 13.3105 27.1626 14.2367Z" fill="white"/>
<path fill-rule="evenodd" clip-rule="evenodd" d="M7.80985 17.7386C7.29834 16.3205 8.02399 15.4858 9.28681 16.4141L9.2347 17.4929C8.61086 17.9713 8.68622 17.9652 7.80991 17.7386H7.80985ZM7.7939 14.3044C4.09818 15.5356 6.12455 20.783 9.29905 19.6097C12.5649 18.4025 10.945 13.2545 7.7939 14.3044Z" fill="white"/>
<path fill-rule="evenodd" clip-rule="evenodd" d="M0.659078 11.6423C0.192948 14.9515 3.75421 11.8526 4.53154 11.3041L17.7665 2.31763C18.5448 1.93925 21.4148 4.29865 22.1871 4.83344L33.1636 12.2691C34.1367 12.9456 34.5665 13.5156 35.5996 12.7987C35.8223 11.2636 33.8805 10.5505 31.8584 9.14941C30.4097 8.14565 28.9323 7.22145 27.4405 6.16687L18.5993 0.188388C17.6597 -0.271333 15.4284 1.64004 13.9776 2.60997C12.473 3.61578 11.0786 4.61993 9.57768 5.60539L0.659078 11.6423Z" fill="white"/>
<path fill-rule="evenodd" clip-rule="evenodd" d="M17.4723 12.0969C16.9608 10.6787 17.6864 9.8441 18.9493 10.7724L18.8971 11.8512C18.2733 12.3296 18.3487 12.3235 17.4724 12.0969H17.4723ZM17.4996 8.59512C14.1204 9.52798 15.3903 15.0245 18.8417 14.0253C22.0402 13.0992 20.8542 7.66894 17.4996 8.59512Z" fill="white"/>
<path fill-rule="evenodd" clip-rule="evenodd" d="M26.5486 22.6672C26.9071 22.6146 28.3109 22.5269 28.6196 22.5929C29.3501 22.7492 29.1345 23.0713 29.1159 24.0901C29.0909 25.4558 29.1076 26.8347 29.1077 28.2286L26.4566 28.2304L26.5486 22.6672ZM7.22329 22.6672C7.58179 22.6146 8.98555 22.5269 9.29423 22.5929C10.0248 22.7492 9.80919 23.0713 9.79059 24.0901C9.76555 25.4558 9.78224 26.8347 9.7823 28.2286L7.13124 28.2304L7.22329 22.6672ZM16.886 17.0249C20.0364 16.5624 19.4645 17.3282 19.4471 18.832C19.4293 20.3842 19.4449 21.9467 19.445 23.5266L16.7947 23.5285L16.886 17.0248V17.0249ZM15.3338 28.5202C15.6488 27.295 15.06 26.7379 14.523 25.8267C12.5379 22.4588 12.4469 23.0346 13.613 21.0251C14.024 20.3168 14.6121 19.2295 15.0464 18.7945C15.0862 22.3659 14.3697 25.4164 17.0124 25.4164C19.8555 25.4164 21.1436 25.8292 21.1977 23.1693C21.2273 21.7187 21.1443 20.2638 21.2228 18.815C21.8471 19.5306 22.297 20.5266 22.841 21.4346C23.7956 23.028 23.5819 22.8182 21.2751 26.5993C20.6852 27.5664 20.5317 28.8115 22.147 28.6092C22.8739 27.6291 23.9083 25.2388 24.709 24.4369C24.7369 26.9337 24.0291 30.1185 26.6751 30.1185C32.0128 30.1185 30.6043 29.6451 30.8856 24.4573C32.868 26.7298 32.5836 29.2704 34.6325 28.4793C34.9706 27.2679 34.383 26.7336 33.8485 25.8267C32.2947 23.1907 31.3644 20.7165 28.2564 20.7165C25.3449 20.7165 26.3285 21.0118 24.7731 21.2618C23.2149 18.2126 21.7504 15.0742 18.5937 15.0742C13.346 15.0742 14.0043 17.8005 11.3906 21.2508C10.4599 21.0404 10.1525 20.7164 8.93103 20.7164C4.48493 20.7164 4.59033 22.271 1.9499 26.5993C1.35994 27.5663 1.20644 28.8114 2.82176 28.6091C3.54871 27.6291 4.58316 25.2388 5.3838 24.4368C5.41162 26.9336 4.7039 30.1184 7.3499 30.1184C12.6041 30.1184 11.3227 29.7069 11.5551 24.4517C12.577 25.5459 13.3309 27.4236 14.1451 28.6746L15.3339 28.5202H15.3338Z" fill="white"/>
</svg>
