<svg width="35" height="30" viewBox="0 0 35 30" fill="none" xmlns="http://www.w3.org/2000/svg">
<path fill-rule="evenodd" clip-rule="evenodd" d="M22.6868 22.4055C22.6868 19.3562 22.3188 18.7329 24.028 18.7329C30.4441 18.7329 29.6666 17.9849 29.6666 22.4617L22.6868 22.4055ZM10.492 5.87238C10.492 3.36091 10.1276 1.97028 12.6954 1.94616L30.4767 1.94995C33.2193 1.93204 33.1588 2.71418 33.1511 5.49612L33.1508 18.1737C33.1511 20.1532 33.5245 22.492 31.3974 22.4055C31.3974 17.0525 31.0452 16.8689 26.1188 16.8685C21.0986 16.8685 20.9563 17.108 20.9563 22.4603L17.3824 22.4734C17.6985 22.9858 18.0556 23.9898 18.628 24.3261C21.5896 24.3261 24.5512 24.3261 27.5125 24.3261C30.4441 24.3261 33.2039 24.8188 34.4392 22.4159C35.2428 20.8526 34.9756 6.81405 34.8822 3.99593C34.7686 0.563805 32.6376 0.0859057 29.6029 0.0893513C25.5914 0.093486 15.3792 -0.11945 12.1794 0.0972761C8.71423 0.331574 8.7622 3.49081 8.76123 5.61878L10.4927 5.87238H10.492Z" fill="white"/>
<path fill-rule="evenodd" clip-rule="evenodd" d="M15.73 28.0552H1.78284C2.01625 25.869 2.77669 24.7806 3.84943 23.7951C5.93694 21.878 11.3202 21.929 13.5887 23.7483C14.7628 24.6899 15.4801 25.8277 15.7296 28.0552H15.73ZM17.2444 29.1736C18.1008 27.7124 16.6189 24.5549 16.0609 23.7176C12.8366 18.8793 4.40479 20.0353 1.9216 23.035C0.941908 24.2186 -1.84778 29.8087 1.89391 29.9255L11.4848 29.9193C13.0752 29.9193 16.5484 30.361 17.2441 29.1736H17.2444Z" fill="white"/>
<path fill-rule="evenodd" clip-rule="evenodd" d="M7.93156 7.62571C0.84451 9.10006 3.06274 19.7613 9.51748 18.6698C16.5975 17.4728 14.442 6.27126 7.93156 7.62571Z" fill="white"/>
</svg>
