<svg width="41" height="35" viewBox="0 0 41 35" fill="none" xmlns="http://www.w3.org/2000/svg">
<path fill-rule="evenodd" clip-rule="evenodd" d="M5.40684 19.6439C5.40684 18.1918 5.37583 17.3623 5.83166 16.1842C6.74154 16.3135 12.0198 19.0747 12.8416 19.6654L11.8659 19.7101L6.33516 19.7234L5.40684 19.6439ZM15.4492 18.3728C14.5306 18.0837 13.2267 17.3009 12.3735 16.8535C11.681 16.4905 10.322 15.6078 9.75133 15.4496C13.1836 15.0857 15.5951 15.1002 15.4492 18.3728ZM2.95805 20.1492C3.29094 21.9475 4.85894 21.9185 7.08849 21.9076C9.18172 21.8974 11.281 21.8994 13.3743 21.906C15.513 21.913 17.4244 22.0107 17.8728 20.3307C18.2328 18.9815 18.0207 16.4617 17.3116 15.397C15.5974 12.8232 11.6158 12.9005 7.41182 13.2308C3.75633 13.5178 2.28244 16.5007 2.95791 20.1493L2.95805 20.1492Z" fill="white"/>
<path fill-rule="evenodd" clip-rule="evenodd" d="M25.5142 19.6439C25.5142 15.5024 25.7602 15.3896 30.4649 15.3914C35.2476 15.3932 35.5842 15.3997 35.5842 19.7145L25.5142 19.6439ZM23.0654 20.1492C23.3983 21.9475 24.9663 21.9185 27.1959 21.9076C29.2891 21.8974 31.3883 21.8994 33.4817 21.906C35.6204 21.913 37.532 22.0107 37.9801 20.3307C38.3402 18.9815 38.1281 16.4617 37.419 15.397C35.7048 12.8232 31.7231 12.9005 27.5192 13.2308C23.8637 13.5178 22.3901 16.5006 23.0654 20.1492Z" fill="white"/>
<path fill-rule="evenodd" clip-rule="evenodd" d="M27.7014 28.4561C28.5676 27.6511 29.3059 27.1854 30.1572 26.4576C31.9175 24.9522 31.6882 21.5752 24.9043 27.583C22.228 29.9533 21.8805 29.2536 26.6597 32.9165C27.1169 33.267 27.3602 33.5584 27.7924 33.8916C28.6881 34.5816 29.2536 35.2451 30.8287 34.9103C31.7983 32.8469 30.4477 33.2734 27.7013 30.7211C30.1286 30.6007 32.7875 30.686 35.2403 30.6862C37.9495 30.6862 41.0765 31.4789 40.4084 28.7731C38.239 28.0862 30.8301 28.6111 27.7014 28.4561Z" fill="white"/>
<path fill-rule="evenodd" clip-rule="evenodd" d="M11.6404 32.03C8.22064 34.3673 10.4507 35.8382 12.3626 34.4236C20.2993 28.5507 18.6835 29.9559 14.2088 26.2225C11.9436 24.3326 11.6106 23.7854 10.0221 24.4405C9.42844 26.5438 12.3533 27.0631 13.2793 28.4908C10.3738 28.4944 2.41182 27.9918 0.5 28.9223L0.549858 30.2956C2.07115 31.0742 10.631 30.685 13.2793 30.6883C12.8506 31.349 13.1935 30.971 12.5136 31.4735C12.1929 31.7106 11.9704 31.8045 11.6404 32.0302V32.03Z" fill="white"/>
<path fill-rule="evenodd" clip-rule="evenodd" d="M13.3822 2.30279C14.175 2.32956 13.7944 2.30781 14.2201 2.5878C13.9903 3.39514 14.265 3.19462 12.8888 3.18948L7.3936 3.16749L13.3822 2.30279ZM13.6536 0.0979154C8.96052 0.725166 3.3163 0.0280083 4.92432 4.25684C5.35761 5.39627 6.62674 5.36819 8.08492 5.36018C10.045 5.34942 15.4146 5.804 16.3189 4.72552C16.8134 4.13579 16.8557 1.88933 16.6193 1.08868C16.2727 -0.0849182 15.1753 -0.105592 13.6536 0.0977959V0.0979154Z" fill="white"/>
<path fill-rule="evenodd" clip-rule="evenodd" d="M29.2841 4.78643C32.6426 3.1297 34.4756 7.4098 31.7412 8.53225C28.6545 9.79918 26.5144 6.15267 29.2841 4.78643ZM29.5745 2.33813C22.5057 3.89867 25.629 12.1881 31.8419 10.8124C38.1362 9.41858 35.6829 0.989587 29.5745 2.33813Z" fill="white"/>
<path fill-rule="evenodd" clip-rule="evenodd" d="M8.07248 7.30592L7.60094 6.7181H5.83378C5.50717 6.99199 5.55634 6.27918 5.55634 7.30699C6.37388 12.8945 16.0171 11.4899 15.3326 6.62561L13.1225 6.63386C12.3976 7.74783 12.6242 8.42563 11.0517 8.70502C9.34652 9.00806 8.46533 8.31449 8.07248 7.30592Z" fill="white"/>
</svg>
