<svg width="40" height="36" viewBox="0 0 40 36" fill="none" xmlns="http://www.w3.org/2000/svg">
<path fill-rule="evenodd" clip-rule="evenodd" d="M10.4666 14.3572C10.4666 13.0195 10.9453 12.6075 12.1095 12.6075C16.3174 12.6025 26.1838 12.2935 29.7465 12.7906C30.2923 14.0902 30.2846 21.1068 29.7487 22.4317C26.9104 22.8531 15.859 22.5979 12.232 22.5979C9.68065 22.5979 10.4672 20.0395 10.4672 14.3572H10.4666ZM10.847 10.3256C7.5437 11.2642 8.03286 13.9789 8.03286 17.6025C8.03286 20.8947 7.76959 24.0577 10.6815 24.9118C11.9803 25.2924 28.6209 25.2706 29.9053 24.8838C32.9893 23.9541 32.499 21.141 32.499 17.603C32.499 14.0645 32.9893 11.2514 29.9053 10.3222C28.473 9.89069 12.2172 9.93658 10.847 10.3261V10.3256Z" fill="white"/>
<path fill-rule="evenodd" clip-rule="evenodd" d="M2.43913 2.62119C8.13769 2.62119 36.1781 2.89209 39.5187 2.4404C39.9392 1.41836 39.9392 1.33329 39.5166 0.325239C36.16 -0.261903 8.17121 0.127099 2.43913 0.129898C0.0762784 0.129898 0.0762784 2.62119 2.43913 2.62119Z" fill="white"/>
<path fill-rule="evenodd" clip-rule="evenodd" d="M39.5166 34.8788C39.5611 33.9519 40.1981 34.403 39.5188 32.7631C36.1743 32.3108 7.91729 32.5823 2.19455 32.5823H2.43913C0.0762784 32.5823 0.0762784 35.0736 2.43913 35.0736C8.19595 35.0736 36.127 35.4492 39.5166 34.8788Z" fill="white"/>
</svg>
